<svg width="178" height="54" viewBox="0 0 178 54" fill="none" xmlns="http://www.w3.org/2000/svg">
<path d="M50.672 6.576C51.7173 6.72533 52.4267 7.04266 52.8 7.528C53.2107 8.01333 53.416 8.648 53.416 9.432C53.416 12.008 52.0347 13.2027 49.272 13.016L47.312 12.848C45.1093 12.6613 42.9067 12.512 40.704 12.4C38.5387 12.288 36.2613 12.232 33.872 12.232H31.352C30.904 17.7573 30.4373 22.7973 29.952 27.352L39.584 27.184C40.9653 27.184 41.88 27.4267 42.328 27.912C42.8133 28.3973 43.056 29.0507 43.056 29.872C43.056 31.1413 42.6827 32.1493 41.936 32.896C41.1893 33.6053 40.1253 33.96 38.744 33.96H29.168L28.832 36.368C28.048 42.528 26.368 46.9147 23.792 49.528C21.2533 52.1413 17.744 53.448 13.264 53.448C10.7253 53.448 8.392 52.9067 6.264 51.824C4.136 50.704 2.568 49.36 1.56 47.792C1.14933 47.1573 0.944 46.392 0.944 45.496C0.944 44.6 1.14933 43.816 1.56 43.144C2.008 42.472 2.54933 42.136 3.184 42.136C3.632 42.136 4.06133 42.2853 4.472 42.584C4.92 42.8827 5.48 43.4613 6.152 44.32C7.944 46.672 10.1653 47.848 12.816 47.848C14.944 47.848 16.7173 46.9893 18.136 45.272C19.592 43.5173 20.5253 40.7733 20.936 37.04L21.272 33.96H18.584C17.7253 33.96 16.9787 33.7173 16.344 33.232C15.7467 32.7467 15.448 32.056 15.448 31.16C15.448 30.0027 15.7467 29.1253 16.344 28.528C16.9413 27.8933 17.8187 27.576 18.976 27.576C20.0213 27.576 21.048 27.5573 22.056 27.52C22.504 23.4133 22.9893 18.4293 23.512 12.568C19.48 12.9413 16.6427 13.5947 15 14.528C13.3573 15.4613 12.536 16.8427 12.536 18.672C12.536 19.9413 12.9093 21.1547 13.656 22.312C13.88 22.648 13.992 22.984 13.992 23.32C13.992 23.992 13.6187 24.5893 12.872 25.112C12.1253 25.5973 11.2853 25.84 10.352 25.84C9.344 25.84 8.48533 25.5413 7.776 24.944C7.328 24.5707 6.89867 23.8053 6.488 22.648C6.07733 21.4907 5.872 20.2027 5.872 18.784C5.872 14.1547 8.24267 10.7947 12.984 8.704C17.7627 6.61333 24.7253 5.568 33.872 5.568C40.2187 5.568 45.8187 5.904 50.672 6.576ZM68.9292 40.512C69.4145 40.512 69.7879 40.736 70.0492 41.184C70.3479 41.632 70.4972 42.248 70.4972 43.032C70.4972 44.5253 70.1425 45.6827 69.4332 46.504C67.8279 48.4827 66.0732 50.1067 64.1692 51.376C62.3025 52.6453 60.1745 53.28 57.7852 53.28C54.4999 53.28 52.0545 51.7867 50.4492 48.8C48.8812 45.8133 48.0972 41.9493 48.0972 37.208C48.0972 32.6533 48.6759 27.464 49.8332 21.64C51.0279 15.816 52.7639 10.8133 55.0412 6.632C57.3559 2.45066 60.0999 0.359997 63.2732 0.359997C65.0652 0.359997 66.4652 1.2 67.4732 2.88C68.5185 4.52267 69.0412 6.89333 69.0412 9.992C69.0412 14.4347 67.8092 19.5867 65.3452 25.448C62.8812 31.3093 59.5399 37.1147 55.3212 42.864C55.5825 44.3947 56.0119 45.496 56.6092 46.168C57.2065 46.8027 57.9905 47.12 58.9612 47.12C60.4919 47.12 61.8359 46.6907 62.9932 45.832C64.1505 44.936 65.6252 43.424 67.4172 41.296C67.8652 40.7733 68.3692 40.512 68.9292 40.512ZM62.0412 5.904C61.1825 5.904 60.2119 7.45333 59.1292 10.552C58.0465 13.6507 57.0945 17.496 56.2732 22.088C55.4519 26.68 55.0039 31.0853 54.9292 35.304C57.5799 30.936 59.6892 26.568 61.2572 22.2C62.8252 17.7947 63.6092 13.7813 63.6092 10.16C63.6092 7.32267 63.0865 5.904 62.0412 5.904ZM77.4568 23.208C75.8888 23.208 74.7128 22.8533 73.9288 22.144C73.1448 21.3973 72.7528 20.3707 72.7528 19.064C72.7528 17.7573 73.2568 16.6747 74.2648 15.816C75.3101 14.92 76.5981 14.472 78.1288 14.472C79.5101 14.472 80.6301 14.808 81.4888 15.48C82.3475 16.152 82.7768 17.104 82.7768 18.336C82.7768 19.8293 82.2915 21.024 81.3208 21.92C80.3501 22.7787 79.0621 23.208 77.4568 23.208ZM77.0088 53.28C74.5821 53.28 72.8088 52.4213 71.6888 50.704C70.6061 48.9867 70.0648 46.7093 70.0648 43.872C70.0648 42.192 70.2701 40.0453 70.6808 37.432C71.1288 34.7813 71.6888 32.3173 72.3608 30.04C72.6968 28.8453 73.1448 28.024 73.7048 27.576C74.2648 27.128 75.1608 26.904 76.3928 26.904C78.2968 26.904 79.2488 27.5387 79.2488 28.808C79.2488 29.7413 78.8941 31.9067 78.1848 35.304C77.2888 39.4107 76.8408 42.192 76.8408 43.648C76.8408 44.768 76.9901 45.6267 77.2888 46.224C77.5875 46.8213 78.0915 47.12 78.8008 47.12C79.4728 47.12 80.3128 46.6533 81.3208 45.72C82.3288 44.7867 83.6728 43.312 85.3528 41.296C85.8008 40.7733 86.3048 40.512 86.8648 40.512C87.3501 40.512 87.7235 40.736 87.9848 41.184C88.2835 41.632 88.4328 42.248 88.4328 43.032C88.4328 44.5253 88.0782 45.6827 87.3688 46.504C83.6728 51.0213 80.2195 53.28 77.0088 53.28ZM98.7481 53.28C95.0894 53.28 92.2334 52.2533 90.1801 50.2C88.1641 48.1093 87.1561 45.3653 87.1561 41.968C87.1561 38.944 87.7534 36.2933 88.9481 34.016C90.1427 31.7387 91.6921 29.984 93.5961 28.752C95.5001 27.52 97.4974 26.904 99.5881 26.904C101.641 26.904 103.228 27.52 104.348 28.752C105.505 29.9467 106.084 31.496 106.084 33.4C106.084 34.968 105.729 36.2933 105.02 37.376C104.348 38.4587 103.452 39 102.332 39C101.623 39 101.044 38.832 100.596 38.496C100.185 38.16 99.9801 37.6933 99.9801 37.096C99.9801 36.8347 100.017 36.536 100.092 36.2C100.167 35.864 100.223 35.6213 100.26 35.472C100.447 34.912 100.54 34.3893 100.54 33.904C100.54 33.4187 100.409 33.0453 100.148 32.784C99.9241 32.5227 99.5881 32.392 99.1401 32.392C98.2814 32.392 97.4787 32.784 96.7321 33.568C95.9854 34.3147 95.3881 35.3413 94.9401 36.648C94.4921 37.9547 94.2681 39.392 94.2681 40.96C94.2681 45.2907 96.1534 47.456 99.9241 47.456C101.455 47.456 103.097 46.952 104.852 45.944C106.644 44.8987 108.399 43.3493 110.116 41.296C110.564 40.7733 111.068 40.512 111.628 40.512C112.113 40.512 112.487 40.736 112.748 41.184C113.047 41.632 113.196 42.248 113.196 43.032C113.196 44.4507 112.841 45.608 112.132 46.504C110.377 48.6693 108.268 50.3493 105.804 51.544C103.377 52.7013 101.025 53.28 98.7481 53.28ZM145.187 40.512C145.673 40.512 146.046 40.736 146.307 41.184C146.606 41.632 146.755 42.248 146.755 43.032C146.755 44.5253 146.401 45.6827 145.691 46.504C144.011 48.5573 142.313 50.2 140.595 51.432C138.878 52.664 136.843 53.28 134.491 53.28C131.617 53.28 129.302 52.4587 127.547 50.816C125.793 49.1733 124.915 46.9893 124.915 44.264C124.915 42.808 125.662 41.7627 127.155 41.128C128.798 40.4187 129.974 39.672 130.683 38.888C131.393 38.0667 131.747 37.0773 131.747 35.92C131.747 35.248 131.598 34.744 131.299 34.408C131.038 34.072 130.702 33.904 130.291 33.904C129.283 33.904 128.163 34.632 126.931 36.088C125.737 37.544 124.617 39.4293 123.571 41.744C122.526 44.0213 121.705 46.3733 121.107 48.8C120.697 50.5547 120.211 51.7493 119.651 52.384C119.129 52.9813 118.289 53.28 117.131 53.28C115.974 53.28 115.115 52.8693 114.555 52.048C114.033 51.1893 113.678 49.8827 113.491 48.128C113.305 46.3733 113.211 43.7973 113.211 40.4C113.211 34.6507 113.79 28.6587 114.947 22.424C116.142 16.1893 117.878 10.9627 120.155 6.744C122.47 2.488 125.233 0.359997 128.443 0.359997C130.161 0.359997 131.542 1.10666 132.587 2.6C133.67 4.056 134.211 5.96 134.211 8.312C134.211 12.0827 133.11 16.0027 130.907 20.072C128.705 24.104 125.121 28.8267 120.155 34.24C120.043 36.1813 119.987 38.1787 119.987 40.232C121.779 35.5653 123.833 32.1867 126.147 30.096C128.462 27.968 130.627 26.904 132.643 26.904C134.51 26.904 136.003 27.5387 137.123 28.808C138.281 30.0773 138.859 31.6453 138.859 33.512C138.859 35.5653 138.337 37.4507 137.291 39.168C136.246 40.8853 134.454 42.416 131.915 43.76C132.065 44.768 132.513 45.5893 133.259 46.224C134.043 46.8213 134.977 47.12 136.059 47.12C137.217 47.12 138.337 46.672 139.419 45.776C140.502 44.88 141.921 43.3867 143.675 41.296C144.123 40.7733 144.627 40.512 145.187 40.512ZM127.267 5.904C126.595 5.904 125.849 6.87467 125.027 8.816C124.206 10.72 123.403 13.3147 122.619 16.6C121.873 19.848 121.257 23.3947 120.771 27.24C123.086 24.5147 124.99 21.5467 126.483 18.336C128.014 15.1253 128.779 12.2133 128.779 9.6C128.779 8.40533 128.649 7.49066 128.387 6.856C128.126 6.22133 127.753 5.904 127.267 5.904ZM150.367 53.28C148.948 53.28 147.94 52.5333 147.343 51.04C146.783 49.5467 146.503 47.1573 146.503 43.872C146.503 39.0187 147.194 34.408 148.575 30.04C148.911 28.9573 149.452 28.1733 150.199 27.688C150.983 27.1653 152.066 26.904 153.447 26.904C154.194 26.904 154.716 26.9973 155.015 27.184C155.314 27.3707 155.463 27.7253 155.463 28.248C155.463 28.8453 155.183 30.1893 154.623 32.28C154.25 33.7733 153.951 35.08 153.727 36.2C153.503 37.32 153.316 38.7013 153.167 40.344C154.399 37.1333 155.78 34.52 157.311 32.504C158.842 30.488 160.335 29.0507 161.791 28.192C163.284 27.3333 164.647 26.904 165.879 26.904C168.306 26.904 169.519 28.1173 169.519 30.544C169.519 31.0293 169.351 32.2053 169.015 34.072C168.716 35.5653 168.567 36.4987 168.567 36.872C168.567 38.1787 169.034 38.832 169.967 38.832C171.012 38.832 172.356 38.0107 173.999 36.368C174.484 35.8827 174.988 35.64 175.511 35.64C175.996 35.64 176.37 35.864 176.631 36.312C176.93 36.7227 177.079 37.2827 177.079 37.992C177.079 39.3733 176.706 40.456 175.959 41.24C174.914 42.3227 173.682 43.256 172.263 44.04C170.882 44.7867 169.407 45.16 167.839 45.16C165.86 45.16 164.348 44.656 163.303 43.648C162.295 42.64 161.791 41.2773 161.791 39.56C161.791 39 161.847 38.44 161.959 37.88C162.034 37.1333 162.071 36.6293 162.071 36.368C162.071 35.7707 161.866 35.472 161.455 35.472C160.895 35.472 160.148 36.1067 159.215 37.376C158.319 38.608 157.423 40.2507 156.527 42.304C155.631 44.3573 154.903 46.5227 154.343 48.8C153.932 50.5547 153.447 51.7493 152.887 52.384C152.364 52.9813 151.524 53.28 150.367 53.28Z" fill="white"/>
</svg>
